<svg width="111" height="24" viewBox="0 0 111 24" fill="none" xmlns="http://www.w3.org/2000/svg">
<path d="M25 15H37V19H25V15Z" fill="#874FFF"/>
<path d="M104.976 22.9999V17.1719H110.804V22.9999H104.976Z" fill="#874FFF"/>
<path d="M89.2313 10.0418H99.6783V13.9478H89.2313V10.0418ZM89.6033 18.9698H101.414V22.9998H84.6123V1.2998H101.011V5.3298H89.6033V18.9698Z" fill="black"/>
<path d="M68.7888 22.9998L59.4268 1.2998H64.8518L73.0358 20.5198H69.8428L78.1508 1.2998H83.1418L73.7488 22.9998H68.7888Z" fill="black"/>
<path d="M45.394 22.9998V1.2998H50.416V18.9078H61.297V22.9998H45.394Z" fill="black"/>
<path d="M19.1484 22.9998L28.8204 1.2998H33.7804L43.4834 22.9998H38.2134L30.2774 3.8418H32.2614L24.2944 22.9998H19.1484Z" fill="black"/>
<path d="M9.70317 23.3722C7.96716 23.3722 6.3035 23.1449 4.71216 22.6902C3.12083 22.2149 1.8395 21.6052 0.868164 20.8612L2.57316 17.0792C3.50316 17.7406 4.5985 18.2882 5.85916 18.7222C7.1405 19.1356 8.43216 19.3422 9.73416 19.3422C10.7262 19.3422 11.5218 19.2492 12.1212 19.0632C12.7412 18.8566 13.1958 18.5776 13.4852 18.2262C13.7745 17.8749 13.9192 17.4719 13.9192 17.0172C13.9192 16.4386 13.6918 15.9839 13.2372 15.6532C12.7825 15.3019 12.1832 15.0229 11.4392 14.8162C10.6952 14.5889 9.8685 14.3822 8.95916 14.1962C8.0705 13.9896 7.1715 13.7416 6.26216 13.4522C5.3735 13.1629 4.55716 12.7909 3.81316 12.3362C3.06916 11.8816 2.4595 11.2822 1.98416 10.5382C1.5295 9.79422 1.30216 8.84356 1.30216 7.68622C1.30216 6.44622 1.63283 5.31989 2.29416 4.30722C2.97616 3.27389 3.98883 2.45755 5.33216 1.85822C6.69616 1.23822 8.40116 0.928223 10.4472 0.928223C11.8112 0.928223 13.1545 1.09355 14.4772 1.42422C15.7998 1.73422 16.9675 2.20955 17.9802 2.85022L16.4302 6.66322C15.4175 6.08455 14.4048 5.66089 13.3922 5.39222C12.3795 5.10289 11.3875 4.95822 10.4162 4.95822C9.44483 4.95822 8.64916 5.07189 8.02916 5.29922C7.40916 5.52656 6.96483 5.82622 6.69616 6.19822C6.4275 6.54955 6.29316 6.96289 6.29316 7.43822C6.29316 7.99622 6.5205 8.45089 6.97516 8.80222C7.42983 9.13289 8.02916 9.40155 8.77316 9.60822C9.51716 9.81489 10.3335 10.0216 11.2222 10.2282C12.1315 10.4349 13.0305 10.6726 13.9192 10.9412C14.8285 11.2099 15.6552 11.5716 16.3992 12.0262C17.1432 12.4809 17.7425 13.0802 18.1972 13.8242C18.6725 14.5682 18.9102 15.5086 18.9102 16.6452C18.9102 17.8646 18.5692 18.9806 17.8872 19.9932C17.2052 21.0059 16.1822 21.8222 14.8182 22.4422C13.4748 23.0622 11.7698 23.3722 9.70317 23.3722Z" fill="black"/>
</svg>
